<mxfile host="app.diagrams.net" agent="Mozilla/5.0 (X11; Linux x86_64) AppleWebKit/537.36 (KHTML, like Gecko) Chrome/127.0.0.0 Safari/537.36" version="24.7.16">
  <diagram name="Page-1" id="u0bHgL9ryZXh9v7xUjcb">
    <mxGraphModel dx="1368" dy="874" grid="1" gridSize="10" guides="1" tooltips="1" connect="1" arrows="1" fold="1" page="1" pageScale="1" pageWidth="827" pageHeight="1169" math="1" shadow="0">
      <root>
        <mxCell id="0" />
        <mxCell id="1" parent="0" />
        <mxCell id="wTl5N8vqSqgQVyRXSi7D-1" value="Observation model" style="rounded=1;whiteSpace=wrap;html=1;fillColor=#333333;fontColor=#ffffff;strokeColor=#314354;fontFamily=Roboto;fontSource=https%3A%2F%2Ffonts.googleapis.com%2Fcss%3Ffamily%3DRoboto;fontSize=11;" parent="1" vertex="1">
          <mxGeometry x="440" y="360" width="160" height="80" as="geometry" />
        </mxCell>
        <mxCell id="wTl5N8vqSqgQVyRXSi7D-2" value="" style="endArrow=classic;html=1;rounded=0;exitX=1;exitY=0.5;exitDx=0;exitDy=0;strokeWidth=2;" parent="1" source="wTl5N8vqSqgQVyRXSi7D-1" edge="1">
          <mxGeometry width="50" height="50" relative="1" as="geometry">
            <mxPoint x="670" y="730" as="sourcePoint" />
            <mxPoint x="640" y="400" as="targetPoint" />
          </mxGeometry>
        </mxCell>
        <mxCell id="wTl5N8vqSqgQVyRXSi7D-3" value="" style="endArrow=classic;html=1;rounded=0;strokeWidth=2;entryX=0;entryY=0.5;entryDx=0;entryDy=0;" parent="1" target="wTl5N8vqSqgQVyRXSi7D-1" edge="1">
          <mxGeometry width="50" height="50" relative="1" as="geometry">
            <mxPoint x="400" y="400" as="sourcePoint" />
            <mxPoint x="570" y="410" as="targetPoint" />
          </mxGeometry>
        </mxCell>
        <mxCell id="wTl5N8vqSqgQVyRXSi7D-7" value="`x`" style="text;html=1;align=center;verticalAlign=middle;whiteSpace=wrap;rounded=0;fontSize=20;" parent="1" vertex="1">
          <mxGeometry x="340" y="383" width="60" height="30" as="geometry" />
        </mxCell>
        <mxCell id="wTl5N8vqSqgQVyRXSi7D-8" value="`y`" style="text;html=1;align=center;verticalAlign=middle;whiteSpace=wrap;rounded=0;fontSize=20;" parent="1" vertex="1">
          <mxGeometry x="640" y="383" width="60" height="30" as="geometry" />
        </mxCell>
        <mxCell id="cZW3WPiYPWPFKuZPBfyB-2" value="" style="shape=image;imageAspect=0;aspect=fixed;verticalLabelPosition=bottom;verticalAlign=top;image=data:image/png,iVBORw0KGgoAAAANSUhEUgAAAgAAAAIACAYAAAD0eNT6AAAABHNCSVQICAgIfAhkiAAAAAlwSFlzAAAOxAAADsQBlSsOGwAAABl0RVh0U29mdHdhcmUAd3d3Lmlua3NjYXBlLm9yZ5vuPBoAACAASURBVHic7N15vFVV+T/wz7P2PufcCVDQHJoz/VYkoKKCiWD2rTQBJ8zKvs3K5Dykpf1uac7mlBNW5gAOlJaallmiAvdeBNQMh8xKGx0Q5cK955y993p+fxwwRIZ7z1l7OOd+3q8XLxTuedYCzj3r2Wt4FkBEREREREREREREREREREREREREREREREREREREREREREREREREREREREREREREREREREREREREREREREREREREREREREREREREREREREREREREREREREREREREREREREREREREREREREREREREREREREREREREREREREREREREREREREREREREREREREREREREREREREREREREREREREREREREREREREREREREREREREREREREREREREREREREREREREREREREREREREREREREREREREREREREREREREREREREREREREREREREREREREREREREREREREREREREREREREREREREREREREREREREREREREREREREREREREREREREREREREREREREREREREREREREREREREREREREREREREREREREREREREREREREREREREREREREREREREREREREREREREREREREREREREREREREREREREREREREREREREREREREREREREREREREREREREREREREREREREREREREREREREREREREDULS7gARETUm7Zw0AiKjALsTgB1hdXtAh0G1BaLNUC1AkVvvZQJAIVKGIoSgCJFeQF6GmP/AyN8h5o/ID/o9Ruzwgki7TeGP1hCYABARUU300Um7wOqhsDoGsDtA7dawUQtUaxxjBPBygOcDZs0PzwPErP2CMoC/AvI8FE9C8AQ0+gNW/PtZ2XdeWOMfq+ExASAioj7TByc0YdCQIxFGh8FGo2CjraDWcxLc8wGTA7w84K8Z8KtTBGQxFAsAnY9ceaEMn/uakz42ECYARES0Sdo56X+h9hioHQMbbFX7k/0aIoBfAPx85ef/Ptm7ZgE8BuhvIPgNlv9rIWcImAAQEdF6VGGweNLXEdqvwQajYKO8s+DGALmmyoDvuQvbT29A5R4Y/AyD/F/L+39aTKsjaWICQEREAABdfNBBiIJTEAZ7wNqq59/fRtYM+rmmypp+tnQDuAeQG/Fs6bdy+Nwo7Q4lhQkAEdEAposP2Q5R+SJE4cGIwmanwf08kGsBcnnUyXDzDwA3wITXy863PZ92Z+JWF/8iRETkli6ZfDDKwdmIgg87W9MHKk/7+abKwG/c7A1MgYXgPohcho/e/IAINO0OxYEJABHRAKKLJh+LsPxtRME7nAY2Bsi3Arnmyua+RiF4Cqo/gB/cJMPnltPujksN9K9EREQbogrBoolnIwiOg4atToMbHyi0Vtb3G9uLEFyAQbkfN8qmQSYAREQNTLsmnYgoaEcUDHIa2Bgg3wbk3W4byDzBv6E4G0HrdTJ6VpB2d2rBBICIqAFp1+T/Q1i+DDbYwmlgMZUn/nyL07D1R/8EyLcxYvbP63WPABMAIqIGogsOGgUT3I6wtKPTwILKGn++tbHW+GvXAchMGXnz0rQ70l/8VyQiagC6eGILQv0ZwtKnne7qByrH+ZoG1VKat9FFUFwDo2fKiDkr0u5MXzEBICKqc7po0hcQlK+DdXyOHwIU2oDCQJ/u77OXAT1ORs65Ne2O9AUTACKiOqVLp2yNcu99CIq7OQ/uF9Y89dftWf70CO6El5suw3/6n7S7silMAIiI6lBlk1/pOtjQbUF9MZWBv/GP9cVtORQzZNTs29LuyMYwASAiqiOq7T46l96OsOdg58FNDmgdAgif+h26CX55ugyfuyrtjqyPCQARUZ3QRQeNQlSchzAc4jx4vqXy5E9xeBYafU5G3fpY2h1ZV2yXLxMRkTvaOXkGgp4l7gd/AZqHcPCP1/9ATIc+8fmvpd2RdXEGgIgo47Rz4i8Q9E52HtjLVQZ/bvRLjuoPEbadmIUqgkwAiIgySp+ZNAgrgscQBjs4D55vAgqDWdQnHQ8j7x0iH75xeZqd4L88EVEG6eKDdkCptNh5KV+gUsq30OY8LPWHPA/gMzLy5mfT6gH3ABARZYw+evD/otTztPs6/qhM+XPwzwDdAcAj+ofPjU2rB5wBICLKEO2ceCjC0u1Q6/YBTQRo2QLw3JYNoJr1QnCojJh9X9INcwaAiCgjtPPAryAoznU/+BugmYN/RjVD8Qt94guHJd0wEwAiogzQronfRFD8CeD4Ih8RoGXLyoU+lFV5ALfqE0f+X5KNcgmAiChl2jl5BsKeH0IdXyu/dvD3cm7jUlwU0G/IyDk/TqIxJgBERCnSRZOmodx7pfMrfEWAlqGAxyt860wE6JFJ3CjIBICIKCW6aNI3UO691v3gb9Zs+OOTf50KAHuojLzl7jgbYQJARJQCXXrQfujtuR/W8YY/gGv+jaEItf8ro26ZH1cDTACIiBKmjxw4Eqa8GNa6n59vGQL4vMq3QSyH2L1lxC3PxBGcpwCIiBKki6ZsCy/siGXwb2rj4N9YhkHNvbrsy9vGEZwJABFRQlRhEK5+FFHY7Dx4rhnItzoPS6l7P8LgDn1u/4LrwEwAiIiS0vWZeYjK73Ie18sBzYOdh6XMGIueode6DsoEgIgoAdo58SIEpXHOAxuvsuOfGt2X9IkvTHcZkJsAiYhipo9O/gRKPfc7P+4HVM76+zzuN0AEEDteRtzS4SIYEwAiohjp4ilDUOr+N2wM6/6FtsrVvjSQvAi/vIsMn/tarYG4BEBEFKegZ34sg7+f4+A/ML0HYd7JfgAmAEREMdHOieciLH3UeeC1t/vRQHWYPvH5r9UahEsAREQx0K4DdkIYPQ0bxVDpbwvAd34qjOqJYCVCHSG7znmh2hC8JYIoA/S8TwyBYHtI6R1v+Q3xlqNU7pYzFlb9TU4pCfFALIN/romDPwGKwfDwE1V8QgRVXSPJGQCimOk5e+8EkY9DzR6qshMU28LKllBpRYQ80MdvXwFgNETOrkA+/KcW7JPG1ych9i+w3vOIhjwtx95XivvPQ5unXRN/gHLvCc4DiwBtW1d+JgIAlaky6uaq9gTwXUTkkP5gn51RxOdVzN4I8CFE3lDYKvfaCIC8BfIR4FsgZwFPAdlothBC5FlVfcJAl0K8hZDSYjl6SVDtn4f6Tx885F3Ir34hlqf/5iGVGQCitQQrUZYPyeib/93/lxJR1fTsfd4NX4/XyPskQrMjQql+blb0vwP+2p9r/w7tBbBIFA9AzW/wysIl0g5bc1TaKO38zOMISiOdB/bzlVv+iNYnuFlGzP5i/19GRP2iF08Yg5KeoqGZgNAMrW71bQ0BUIiAlrDy88af7l15VVXvNUZ+hvKW93PJwC3tmHQIwp6fxxK8dRjgcdsWbYzZT0be9Pv+vIIJAFEf6Fl77QA/f6YNMVnKZouavnXWDvpNYeVHeodx31DIXUZwA/7T8SBnBmqjCoOF+78OGwxyHrzQWin6Q7Rxf8Sz5VFy+Nyory9gAkC0EdoOg/y4YzXyT0BZ3lPzt4tvK0/6rUEWv/P+psANBnKdTOv4Z9qdqUfaMfEHCOPY+GeAQVshi28ayhr5hoy8+Ud9/uo4u0JUj7R97FDkCldqIIcgMvmaAxaiyqDfZIGa1gsSESjwc6N6mUzv6ky7M/VCF05pBrpfRxTW/n5ZX9MgIN/iPCw1pJdQKOwoH/pJd1++mJUAidbQCz6+g54z/neqza9o0TuipsFftPK0v3UvMKwINEWog8EfAHICHKEiHfaqMY/o1WM/lXaH6oJXuiGWwd8YIOe+ijA1rG1QLB/f1y/mDAANeHrJuO1QNDdqr7cftMYD1mvX9weXAL8uBvy+WCSKdpneeV/aHckiXTpla/S88R+ojeHY3+BGTgBWAXgVwMsAlgMSArr2DysAtgXwLgBD+h3ZWgAWUFv5bxG8OdyJqfy/8Wr/E2TT67C598suP319c1/ILaU0YGn7/oOR652jK8wBNQ/8QOUpf3C5stbfWPZQwb32mjEPCuypMnXR4rQ7lClBcVYsg7/xGmjwlz8AuhDQP0CwDMCTMmLOir68UpdNaUPgvxdGRkGxO1R2h2AXAM1QC4RlIAoAGwE2rPzcV8ar/PBya37kG6HI0haQ4FgA39vcF9b9n5SoGnr+Pudp0T8RodR+kXreAoNKQKHhBv4NUQXmGBOcIkcv6XfhkUajz0wahFdLK6CR+8fJ+n76Xw3I3RD7G5TNb6opUrMpunBKM3LR/yEsHQ8b7ATrMAHzckAuD/hNgKnbZ+QVCMrvl9Fz39jUFzEBoAFFL9jnk1rybkXZ1F5RxaAy8LfWzfq+SysFaMdLTVdI+7ww7c6kRbsOnI1y8fPOAxsPaBuGOvuIVgDzofgpmgpz+7oRreZGFx+VQ/ifk2GDmYiC7Z0GNz6Qb6okYlJ3W+a+JSNnn7upL6irdxdRtbR9QhNyOseWvINFHbztmyJgSKlSmndge1JUvyLTu5ak3ZGkqbb7WLiwB9bWPou0vvra+R8BuA1qz5FRtyxLsyO65KDdUA4uR1QeC3Xxjb6GSGVGoNBST7MC/4Jffr8Mn1ve2BcwAaCGpxdNOEhXYw5Cr/b5VKOVgb+5H+uMjS9Q4BwzrPscOXzZRj9sGo12TjoLQc8ZzgPXz4U/FtCbof73ZdSNf0q7M+vSrgN2gno3Iujd03nwfBOQb6uPTYSKL8qo2Tdv7Lcz/w4jqlalkM8+t2gxd7iTGfqmCNiiVEkCaEOWiOjnZGrXc2l3JAm68NOvIgqHOQ+cb6nMAGTbEqhOl1FzFqXdkU3Rjsl7Qst3OF8aACrVGfOtWU/UlsrI2btt7Dcz3XOiaun5n/iwlqNHUDZuPqAHB0Brmd8xm9ct0BkyreumtDsSJ118yGfQu/KeWIK3DcvuNLNgJVRPw7PBrP6UnE2bLjroLJR7Todat4/txgOaBlcuasqusTJy9gaLevHjjBqOnr/3F7U3/xNEUvunqFFgy1LlbD/1mUJuMr04Wk7s6E27L3HQhZ95DFFplPPA2b7xbwl8OUKG3/zntDtSDX300A8g6JmPKNjOefBCy5q7GrI4pOqPZOScb2zod7LYW6Kq6TkTbtFec4STt3ZhzZQ/N/pVq1NC71A5ZsG/0u6IS7pwSjN05SrYyP228KbBQD6DR/9UZqF1+bGyY33fHqkKQefEnyHsPcR5cD8PNA2pVG/MllUoFLbf0KmMzPWUqBraPqHJnjP+D9rruRn8WwNgaJGDf23GqG8X61V7bnQNsi555TNiGfzFALkm52FrFAD4soy6+eh6H/wBQAQqY+8+FLnmUyCO794Oy8Dq5ZWiRNnShmJpyoZ+gwkA1T29dL9t1Je/odffueZgAuigABjC9X43dDuFPKTXjJmYdk+cicpfjiWun7kqdKsgmCwjZ9+QdkdckzF3X4TmtkkQz+3anlqgZ0UlGcgS0S9s8JeT7geRS/qDfYdrNx5FaGqfNxVUBv6WzGXwjSASYJpM67wu7Y7UQhcd8W6UX30xlrpPLVtmaTPZq9DokzLq1sfS7kicdOHE8dDSA7DW8a5LWVPJMTMzOhGMfafsfMtL6/4iZwCobumF48fqSlnqZvBXYMsiB//4eApcq9fseXLaHamJrj49lsFfJDuDv2AljNm/0Qd/AJC97n4IXmEcjHFczVKB3jeAMDOrJh7UHLb+LzIBoLqkF+zzSV3tPYJIav/UNFjnyl6KkajKhXrN2O+k3ZGq2WhSLHH9zDwp9iKSybLzTQPmwicZc3cnTNOhzvcEAEDP60CUkeUAlbftA2ACQHVHzxk3Xnv8exFJ7Wd6BZUn//yAuMgnE1T1u3r1nmem3Y/+0q6DhyEK3hlL8Gw8/StUj5Rdbp6XdkeSJmPvugv55hmxLIr3vFG5pTB1urcumzJ03V9hAkB1RS+eMEbLuQfcDP4KDOUZ/zQo5Ht69Z6npd2PftHoeGhMp0JyhXji9ofgfBk15460u5EW2eOuq5Fvvs15YLWVmYC43jt95yHMfXLdX2ACQHVDz9tnZ+02Dzsp8AOsKfCThcx8YFLIuXrNmKlp96PPNIrnJIOfR/r7sfX3eKbs/l6DOiN73H0EvPzzzgPbqLInIH37r/s/TACoLujVn3yHBl4HIqn95jVBpcAP1/xTp4or9Zox7ouyxMFGH4olrpf207+8gig4op5K+8ZKC3vBeO53A4cloJx2YUyzv2r7m+M+EwDKPG3frUVfKS9D2bQ6CTgoAFr45J8RRhU36VV7jkm7I5uiiw4aBRvGM1L77m8T7hfR42XXua+k24nskI/d+TL8/DdjCV7qrswGpEa3xh+e/8ja/2MCQJln84MWIfC2chKsKaxc6kNZ0qIi9+h1e7w/7Y5slNij44lrAC/VBOA+GTF7TpodyCLZ8+5L4OfdX3GsChTfVpE3YXaftf/FBIAyTc8b/xPp9YY7CZazwBas8JdRwzSSO/Ta3VrS7sgGBdG4WOKmO/j3ItJpaXYg08QcGMvRwLCUcn0AefO9zASAMkvP22eG9vhfcRLMaKW2v0l9Jy5tjMooq7lr0+7GhkXxzE54qV77e5XsOueFNDuQZTLmnufgF+6PJXhxVSxh+0aZAFC26Tn77aRF/zJnVdeG8la/eiCKI/XqMRu8ujQtlfP/UTwzE+nNAKwCzAVpNV43fDnS+X0BQKUuQLnoPGwfvVMXH7kdwASAMkjbYTSyDzk56w8AgwMgzw3O9UKBy/WaPUam3Y83afhZxFL/F+klAIpLZeRNL6fTeP2Q0Xe/Cj/3q1iCl1PcC5C3uwBMACiLcuN/gbLZ1kmsvAXauOmvzjSpmjl6/YSs1MedEEtU8SqbAJNXhpgr0mi4Lvn5qTAx7AWwNr29AGpGAUwAKGP0gn0P0JLvpuDK2vP+VI8+YovFs9PuBADA2g/HEte4meCqwp18+u87GX3Hv+EVnowleLknlrCbp5wBoGzR9glNtojbnc22DioDPmv81ysBTtBr9tpn818ZN/uuWMKmtgHQzEqp4TrmnRVL2LCcVl2ADwNMAChL8viFBI6K/RQioI3FfuqcUbU/Sn0pQO3gWOJ6qcwA/AUjbnowjYbrmYz55c9gvHh27aWzGfADqu2GCQBlgl68z15aNJ9yEkxQOe8f18YtStKOtliMpypbH+jiKe+BjeL5nHR0pUW/qPxShN8YVfEK82OJG6aSADTjqb+8iwkAZYL2eD+HOqrQ0xYAHqf+G4UAp+tVH/ufVBqPirvGFjuNPQCi8exoHwgE8Syd2DCd64JD/SATAEqdnjf+u852/XvKUr+Np6AS/SCVllXj2QAIpHECoBt++ZGkG20Ye9z1M4iJZ8E+SOEzS+37Ui1DlYpT5w/KdWO49XLbQrGVCoau87vNAHrFi5Yj8ldFIn/Cf1qWYe5wjigx0fYpeS0tdzfFO6jMnS2N6QC9Zs//laldv022WfPBWMKKVH4k6yEZPpefZVUSgWqH/3eE5fc5D27dXz64WYLtGjQBUOMf0zHOWvmkQnaH4kOA3UotCnhDTQBsesolAERCiBHINqsiOW7Rq8b3/wLFX0X0n6rmKVF5tPyPPz2DuYezwkwtcq/cgKKj+1BzFmjmxr9GpSoXajt2lXYkt76j9r2xxHVU46qfjS5JodEGYx4D8D7nYaM0ZgB028ZIAE5YONSE3lRVPQSR7qTa0RaWVfq8CUwAMQbieTCeQIy37oUxHoBtAGwDwViFAKJQUeTe88FVOGnpUgCPiuqj5UB+jyt25bWafaSX7reNrsDhzgIO4UU/DW4kthnzOaBzdnJN2u1iCZvK+j8eT77RBmPM/QAOdh7XWkBtsstC9TwD4E9d+Cnrma+p1XHaY7e16N+TnxhZM+B7EM9UO3C0AdgHwD4qglweFictfUxE71HF3cHFuzHj3pSe6AZYz807Ph/VY7nfIoCnVPWPEPm7AZYD+irUrLMt2G4JY4ZZ2HeKlfdA8BEAO7wtkgoQCRCYys92nR9rGf3vD08rMyZ1VidBoWfq7VNulcPnJvWPPXTzX1KFNCoAqjyRfKMNpgV3ooyrY4kdBYDvZjK0b+Qd9fW8dFznCInMWYiiT6q1/T8bLIDxPBjfh/iJfAP+WUR/gRA/KV+629NJNFgv9KIJW2m3eQnW0SfhsGLl7H+WKVbDyDyB/gbQ32Hoe56tZiDTH40digC7W4sJUvKPxGrvXQi86k49mjWJQM4CTWHl54x/KghwpExLZhZAF+7/GqJgS+eB8y1A0yDnYTdhNUbMHsQjgLXTBZ+KYjka2jwIyCV4G7biiYx/qwOYvqzN+N3f1sB+Sa1WNR0nnoGX8yF+aqU3AWAJoLMCW7oJl+zVm2ZHskDPGX+n9voHOQmWs8BWvVkduCKI/FosbkC4xV1y7H3OaxPr+eP2Q+SdpmUzAVGNh8uNVhKB1jXJQDY9Iy91Dk9iL4Au+HQ3bNjmPHChFSi4D7sJz8rI2R9KssFGpQs+vRo2dD9S51uBpkTfE3/J5kcmAJy46N1Siq5Xi31hbf+zrbVP+4UcJPndtpvysgA/8Tzvyt4LRv4j7c6kQdt3a1EMWenstr8tS1nc/LdKgatM6F0mxyz4VxINavsEHwV7hgbmOATeFjUHzNlKTYXmCFkrqiSQiTKt456429EFn+6BDZudB863AU1uil72jf5eRs7ZL8EGG5Z27P9PhMH2zgPnmoDmIc7DbsLL2dsDMGPBewXmx9oTfly1isowAng5Hybnp3HMpi/eocBpYRSdmDvpsZ8GUdSOS0f/O+1OJarQei56HA3+fuZ2/vcocImJ7CVm5qLlSTYs7fNCAO0A2vX8fU7Ssvf/UDbVzzMHBlhRALotMCiozAxk5FtKoccDiD0BADSeacOk/x5FXk24xcYlEs89vpr4jFtLdk5Mz3hkJ5neuRCR/FVDux/6PfgLTM5HrqUJJp/L6uC/rjygR+U881z+pMfOx+ldw9LuUFI08L7sLFhrCudnN0p+KcBwb1rnGZLw4P+2nnzz4YvlzAeHSEs4C16NU+XhmkRgeVPlv7NhP71qzxGxt6KIad0w4c8nxYBfdnRGEc8Vo8lPsmXgLoB29c2MrpsRmWc0isb2f+AHjO/Bby3AK9TFwL++VoWemiv7f/VPXPJttC/Lp92hOOmF+3wegXFzuYpgzfR06l4RxWQzreMgmdb5t7Q7s5YAKqc/dLQUev5H8+GLNQcse8ArzUB3zkHvamdFjo69EXFVn3r9uIl/TjEBcEUkpkP7iWcA6SYA3sxFn5WXOl+zYfgFaP9TYhGB35yH15TP2jp/FWSQiJyd6y790T/x8X3T7k1cbNmc7ixYU1jZtJauhwSyi0zvvCvtjmyMnN7xZ+/Mh94rreF1kBr/vhRAd74yG2DT/Z4T4At67W4JbpuuYypMAFxRydSaYw0cncHurxkL3iszOh6PguBWtbaqNUqT9+G3FiDpXKkZpx1F7O9yJy29EScsi+cMckr0/EmDUDLDnQVMee1fRS+UYe/eT6Z1/DPVjvSRnPbQUdIWfR6e1j5tUvKAl5uBcqrPEEMQ+YfE3EZMC7MJz1wJVibbYCOz8SSdyefTMV1zuQlmxqJjEeF5De3Ial4vxsBvaYKXzyEzO5LcEwBf9E3pSe/kxz6TdmecsW+cKepoqsZomuf+I1Gd6U3tOjXBgjROyKkP3SKDeneHr7XfQWoFWN4MFNNLwtWYL8bbQkxPe5rwzJUyAXBGJaZZp8SH42KCLaqRGV132DC4rNqNNSbnwW8uQEzDDvxvIcD2RvXu3IlLL8NRi7Ox8FoDDeXzzoI1R2nlf4EIDpfpXVem0roDclLHY2LCjyBnV9UcTAG81gT0pHSgSPXjevm4rWOLL96KWOLapJeu7N8SbrBxibo/FgqksS8koQTgmM6PyLTOlzQMq6uhLIDXlIdXyDfwQ/9GCQTH5trM71pOXer+7GlC9KIJW2lg3uksYEsqu/9VVI+WqZ13pNG4S3Lmw3+VLfTDyFk3a8NvFIBiKkmAj1wY3zKA8WrfPLkhid//rs8m3GDjsjaew/rJl4fujb1FM3PRyQjsk2rtVtW8XoyB39wEk24Vv/QJxgURlvonL/l42l2pSqinONtQvbaOfcJEMF2md12feMMxkWPn/UNag7HqORiNFJWjgqXkv08Vemh80WVxLGGjAAnu+u5BLnwuqcYaX0x7AEziCfQbsSYAZuaia20QXAjVqtox/sCa8u+DbUTl/tyJS+I//uSYhuYwZ8FSWPtX4HKZ2nlN4g3HTE6a/4Rpjg6Fixrxa5cDwsS/X8frjz8WT2H9yPwolrgAECY2C/CIDJ+bwn2zjUcXH7JdVZVp+yL5De3LY0sAZEbXHTYIjqr29Sbnw2sakFP+m+NB5Jr8iUvPS7sjfaXtMAjM+5wFbEp8+rTDDOs+JeFGEyPffPguaY4udxJsbRIQ0/H5jcijZGMpcysf+8XjMH48hV+ieMK+nfwuoYYaXxB8KrbYjoqj9qPB19wnAFNuz8v0jierXu9H5YifV6j7PW+xUsE3cyctuRLt1c2uJKpl70NhHW1xFQD5RKf/l0voHyaHL2voJyg5fd7xaIrc3FgZGuCNZL9/rcH+sQX3/AWxxA1qP4jRBxaRvT2JhgYE0QPjiWsAk3QCoI5nAI5/cAvZ6t0vaGQ/Wm0Ir5Bbc8SPNk+m57ofvwXHPJfkJdL9F3nujmrlbKLFf0RxUlKX+aRNcvg4XOwHAIDeXKL7AUQ1vuJZ4rXHEtdGQBR3XimPyK5zXoi5kYHD2tGxxPVTKQD7D3cJwJTb81JuelKt3bbaEF4+V7nEh/pBD/fz3XPR/mBm/+JsaPZ0FqyQ6PT/A5jWeWOSDaZJTp33HymE5zoJpgBeLyRZ3XRHvXL3qj97NkX2/OUj8HL/iSM2auQfWgAAIABJREFUyjHPAqh1s7RDFRq6O8m0Li+Nh175u6MEQI1s/Z4nNbLvqjaCl/dh8pkdwzJNgIm5VVtcn8XlAG2HkdBUdQJkg5Kb/g8lsjPExea4OiKnP/IdzUVubo6LBFid4JON+ONii228b8USN+iN80jg0xi50y/iCj7QaNfEg2BtPINUGjMAEr3gZMCQ6V2PahTtVO3rTc6v3OBH1VM9MrfyscvS7sbbNI/b19n6P5DY8T9V3CAzF/0pkcYyxjTbGc42367yE7szwBq7V1yxZcw918PLx3Ntd7H2ekwbJHq6SHvy52UblbXTY4lrvDSOAAKR1p4AyMzOhzWKdq329SbHDX/OCGb6Jz0Wz5NKtdS4O6PtJbb+XzLWnJVEQ1kkpzx8u+aifzgJZgVYlcz3t6jsEmsDfs7dUdZ1hSX3ewEEv5IRc37pNugAp1E8CWauKZawm9GLUR96saYEwBzTdaMGUdXTbuJ5HPwdE+jZuZOWxlwfve9sJHs4C+Yn9PQPnS0zFw7ojVPGwxnOgvXkYrtSZz2jtIpbRftK9vjlQvgtd8YSvHely/sBViDUGa6CEaCPTtwfUdgaS3A/hQRA8SeR9uoLGngzOo+w5bDqgUZE4Ddx8I+BAJiVO2Vx1bMyLonFe5wFyyWzHG+MzEqkoQyTb827AbnIzdy0BdCbyBTnEMza6wOxtjDmrsPg5dyfCrERUHRyX49C8TXu/HcssvHMCPp5wEth+l/kaaDa64eOWryDtfamWtr3mvNpXH4wUDTBmttw/GNbpN0RRGZLZ7GSWf9/Qo7u7EqioayTHH7uLFhPQsm+1Q/HGV4EFtq8FzzP/fb9oAiUe2qLofi+jJodzyzFAKWd+w9GFMazvJTG0z8AQP8IVJMAtKsvftipVqtOW7ymPMRkbsN6o/mg7+mNSZdkW5de+Ml3IIK79DaBBECAG2JvpF6U/O84m1APTKVAUOx0x7hbkI/d8QJyhb1gjPvt+8XuysmA6tyEkbO/47I7BEC8q2Aj929eMUA+pQRAdTFQRQIgL3c9qFFU9bEu4/u82CchAkz0T37s1NQ6YHv3clbLWVDZBBg30Xvib6Q+SPsDL2rOujkSCCRyW6AFPhh7IwBk97seQ655PIzvvpJP78r+JwGq1+O1f351oB1bjZsuntiCsPzZWIIXWpFarXsbLAX6mQB4x3Z8XaNo72rbFBF4BZ71T5Iozk5tP0BkPuIslmj83yuKP8nULt6atg7j2wedBSvGn/gLdIfYG1nb1h6/XIg8RsDLdTsP3rsSKK7uy1daiJ4po+Z8Vfadl/QlGY0vtFfGcvbfeEC+2XnYPnpRdp37CtCfBGD6sjYb6A9rabVyuQ/X/RPmw5ofp1Ip0Bh3T2Ne/A82Kvh17I3UG0/cVUIMTAKVAWX7uFt4S2u7//pZlHrfAb/pIefBy6uA1SsA3djMl7wCyGdkxJyznbdN0AUHvwNBEM+JqjSf/oE377bocwIgZtU9arXqmvMm50M8rvunZJTfPeS4xFu19r3OYpn4p/8NsCj2RurNo/Pug+do2FYAQeyzAIkmAAAg+84ryth7JiDXfILzmwOjMrBq+fpLAgrgBkA+KiNvZtIaFy/4JWDdv2G9HJBL7ekfAOav/Y8+jcjeMV2f0SAcX21rIgKPZX5TJYrvFU5ZnNj0KABYle2cBUtgBgBR9Hj8jdQXmYsInn3dWcBy7A8BQ/Xy/VO5HEvG3H0pCrmh8FvuhHiRs8BqK0sCq18DbLgAFuNk5Owvy8ibXnbWBr2FPjr5AATFMbEEbxoUS9i+Mw+/+V+b/dp29W1k59TUXCHHqf+0CVqsNdck2qaFu2OI8ScARbza+mzcjdQjFX3RWbAg9gRA0PxaasdfZfTdPTL2rkPgm6HIF26A5zs43C+An3sefuErsstte8sus+O5npgAALpwSjOCUjxXKOfbUrr4500vY8QOT639n81+N5pXFl2tkR1cbWviGe76z45PFE5cOimpxgTi7oaL+BPIv0o7N1FtiHGZAEQJPAjYXOrXY8uY+1bKnr/6suz16yEoNE9AvnkuvNy/YPp4lMV4Rfj5p5BrPQ+tW7xDxt73QdnjFz+Nt9cEAJDVD8RS9c/LAU0tzsP2i+qv1r0fYtPz8kctbtEo+FIt7Xm85CdTrOj30a73oF1iX1RXRc7dx33sMwD/jLuBuuXB3cmIJBKAoJxWdZUNkj3ufgjAm5sEdcEh74VX/jiMeRdUt4ToIFizAkZfhsrT8PRBGX13jRWBqBraOflkBKvd1/wXAZqHIMWNfxUGb7kfYpMJgMmFP7ahrXoEN77HjX+ZIx/Nr3r8iDJQ07JOn1oC3E39xPw2UuCleFuoY4LnncWqvvp43xnJVAKwPvnYHS8AuD7tftBb6aJJ+yAonh9L8OYtKkf/0tWLcttv1/2FjScA0x7Z0kbRlFpaM9nb+BcBeAbAH1X1SYH5p4V9VYwsl8hE6tnBUPUEZltVfY+IfgDAaEA+jDWDmapCIwus/XnNr0FRSe4EEAhgBGIMZM3PWaKq38VRi+di1ugg3obE4Rsg9hkAPnFtlPTpQHqfuLvwZhNteKkvAVB90YVT3oly9/3QGCr+NQ2q1PxP3/0yetZbPuc2+gEtJne9hlHVKYvxvawMfCuguEMgvynnvQdw3ogV/Y4wfVmbl+/+tA1wulo7ClY3+Qd7+0ecQDyB8XyIn4mE4IO5NvlqAFwbczvu/qDxz5xVXX+14Vl1cktNhVSqU0uMiYCEmZ4BoGzRJydtg+7up6Ch+8Qx3wbkU173f5Pevf6vbDgBOGbp1hoUJ9bSlMml/vT/OxGdVW5beRfa963t4o6rhq+KgJ8B+BmOubdgdKt2jaKvq7V9LIms0EgRRWWgvGZjZC7lksgi30S7XhfzXoD6KUuq6u4pt9FIYDe3Xah/4n5bGM4AUJ/o4s9the7Xn0YUVr3RfaPyLUBTPDcIV8HCz/9q/V/c4He10fB8q5t+yt0U8Uxqa/8iuFetnhX8YLfOWBq44oCSBU4HcLp37KNH2CC6RG20bX9CaGQRRWVYEZi8n1ay9H5v5dIDIiDO2vchADdzXzbeKQAjcPiU22BMfmtnsdYsk8VKOJtDm6fzp7wH5defQBS4Pzaab8vS4A8AC2T4T/+z/i9ucJTWGtf+U9r5/5wa86nyRbt+JrbBfz3R5bvfqleP2c7kc8eJkX5XAFNVRKUAYU/pzf0ESfJEpscZX8U6W1fXmBMAwLCoysaoHeYsVpxT/2+2YVfF3wjVM11y0G6Q7mdiGfybB2dt8AeAH2/oF9+WAHgzu6aotW3VtiIiST/9WwHOC8qDdg4vHHV/kg2/2YEr9rhcZchW4ntVFehQaxH2lhCV3F8stsl2gU/FWh3Qwz9chZIw5gTA2D/F20Adi/BuZ7GS+GjwOJtDG6edB38VxZ5FsKHberwiQOuWaZf53ZDXEbTO3dBvvO3b0dqopvukJZfouvbLasz+5Yt3PR1X7Oi2Bnd/XTV8lV45Zm+T906GVLeuboMIYW+pcqogGUZVpsYW3Ng/OAsWbwlZiyi3LM4G6pv5kLNQfgIzXTZyfzsf1T1VGO2YdAeC7h/DOj6P6uWA1mGAl4nd/m8luGn93f9rvfUv4fSuYRpheC1tGT+h9WzB0x6wR1pP/Rtjrxhzse95e4tBVQmJRjbRJQFV+Qral8XzrjXq7iY5a+LcB/CYTJ/f/9MhA4Qq3F3qlEQCsGWRMwD0Frpg4u7o+PTLCHsOdh680Aa0Ds3COf8NE/ujjf3WWxIA0y3nVs7oVNmOJxCTRKUjmR/4/seKF+/6QgKN9Vt45Z4divxHxEh1a5GqCIsl2DCRJGCYvzqYEEdg+eYjv4OvbmoNKIBSPN9gqpqpJDJzIoeXOvmxz26V5PBlya6lUWbpgxOatGPSHdBiF6LQ3V4WAPBzQNuwNVf7ZlaH7HzLRmdi35IAaBROrqWlhJ7+FwXe6gOqOs+fpKt3/4s24UPimeqOlykQFUvQ0N2lYhsjag+KK7b1ow5nwXrieX8Za2fHErgBaPvYoQjE3SdcPvb38/K4G6D6oF0H/j/km1Yg7DkYWv2D7dsYr1LWt2UoYFI/7r5pKtdt6rf/mwCcsmhbVX1HLW1J/OfalwW2sD8u2Ls+1vgu2eufivzuIlL1U3BYLMe+HKCKybXM/GyK5+mZzo59lT33teQVXTLzUa7/b0yL/1ln5/YEQB/vwqmhEXdli6kuacekM3TBp7pRLrbDOiwKZbzKDv+2rYBcXdSaWg6RTd5q+GYCYHr11Frqc4gxkHhvbHvdGDsZlwx/Lc5GnLtqt6dNzjsYUv35p7BYjnVjoADb505eskcssU97+GHkrJulGgWwyu12BTF6rtOADUZD77POghXC2GsAKJQJwACkD01+t3ZOvEkXfLoXYc9ZsFHVJ9nexs9Xavm3bZXFHf6bcomMvGmTM9BvJgBq9YBaWhI/1l3aakT/r3Th6Lr85o6u2PNXJm8urzqAKqJivMuaoia2ZQApYLqz6m89PhA6e689iqO77nIVrCEFcJcYNsW/nGWgf4m9EcoM7Thwqi484M8wPS8i6D3S2RO/MZW1/batgZYtgfRvmO6vFejFFZv7ov9+kqqt6Ty48WKc/hfMKl2029vqGNcTe/mY48Uzf6v29RpZ2HJ819UrsH9cseXUB+9Fi3VTnEkBrHQyC2BF7HSROipXnDC9YNzHEHluHnkEiSQAUFOXDwnUd9o15f3aMekOnf/pIsLi1YjKOzh7wMgVgJYtKgN/oa2SCNQjxaUyZvZmT8MYAPCPWTherVa/m0EqJwDioMC/As9+M5bgCVNp/lS1NQIAICqHcS4FfBTTl7mbNluP5DARvq3tToa1il7NGwIVcoFMXbTYSX8aVBSas52lR4UIMAnkWh6XABqVdh2wk3YcOA/h689XNva5urxHKmv6bcMqU/1+3T3tr+8NGN3s0z+wJgGwtrZ1vsrtdvEkAAY4GeePfiOW4Em7ctSfjG9uqz6AIirGdoOv5xdKu8UVXE6e96oUcBjEUQbzRqGGpQB5xLxUONNJPxqUXntUzpS9vZ0FbIn35uk3BfbPyTRESdHOSSO088DFKJefRVgcD+tww3K+ec3APyT7O/r7SnCZjJjTp1NyBgAU+rGa2ovt7L/+sTxolxoGzOyxOfu1Wk4FaBRBo5imUo3uGU/gCjntwV9JU3Cak1xRASxvquZUwDMSRQdL+7z41lMawWvPfheRuPlE9DSZ6X/gbzJzEY8BNghdPLFFOybdgbD3cQRFtw8nfr4y8DcNzm4Bn2oIVsIrX9bXL688Qln9QE1txvQXKDBnxnxdbfIu2atXfK+mCnlRbHsBJNYEAADkW49cIM3hhU4uhYmkn0mAPivG/xQHiU1ThWhgjnUWcFAyT/8KdVdzglKlnZNPQymI6Qz/4MrGvkZ54l+XxbkyfG6fT8oZTFFPrdZU6COWGQDFi+UXn6vrjX8bY1uCE2rZC6CRhdpY8qIxcQRdn5z+0KnSXD7ZyXJAaCpJQLC55QDtEBPuLUfPf7HmNhvdeXt/B4FxU/zHU6A5mckWA0nkFlCKT2Wd/4B/IFh9Lmzo9sxvobXy1F9fR/n6Qf+EXPkH/XmF8bdfMrbWIjBxbABU6CzMPTyRecPEXbB3t/iyqJYQNnD/VyPA9ji9y225zI21dfr8i2VweR/N2eoqJa5rbRLQu8GMXhW4RIatmiBHL3m15rYanB6zf0HLudOcBRxcTuYKYABgAlDXtGvSKQiipxCW3+k0sPEqO/sLbYi9EEWaBCfI8Ln9Oi9ubGT3ralNI4jhL1Vzvn+D66BZYjy/pgI0NgydnXxZVy703F38shly8vz5xupW0hTeWfNsgBVgRaGSCKzdHKj4kyg+6U3rPJH14fto+55bEBo3Z6nzEdCU2FaLIoatfDypxsgd7dx/sC48YCnKPRdAI7fryblC5Za++t/Zv2mqv5ARc+7t78sMRD9aU8NxnJNUPNZ7wUhnd8lnUXTZ7neJmOoHJUUsywBivfc4D7qp9trnFeXbDx0ig+WjtinsrDkRKHnAa4WiBP5x8nLTcJne+YCjrjY8Pf9jo7XXc1MQSgAMKSf5wLWUSV790a4DdoLVFxGVd3EevNBaOdYXb4XaLOiFeCdW80JfLd5VS8txlP8Vg185D5pFBssQoeo3vg0jeJ7bBEzh8OrXfpCTf/cUgLF64V7vQOR/T8vewQhla2gf32CeRshFz4pvrsWpD17BAj/9o+0TfFvC/dLXv+/NGVQGcsnt31VVJnp1RhcfPAXFnjnQyO1uPDGV3f31V72vOirnyqib/lrNS33AblNT4zEkABY6z3nQDBIxDyhs1QmA2ghAzmGPAKSUAKwlpyx8GcBUAFO1fbcWFJqPgHh7R5HuZNQMBaRFoSFEVxuRl+FFj8Ho/XLK/P8OAA1RNiphBb1Levwt3cSKgNaEzv2vYTz5ZaINUk20c+JF6O0+yXngtev9jbjDf8OewRD/wmpf7MPq0Fpaj2N2JcyFT7iPmj2e0TsscEq1r9dIK/sAHP4bqGiiSwCbIu1LegD8ZM0PiomeO+507fHdlIL2LbBlKem9Vi/iqM7HcHSibVKVtGviVSj3TnMe2PhrBv8GOte/aQFUvyTv/2nVFVYNgJaauuA6A1C8iHP3HBDntIMrxnTWcksgAKi6nWYVxXZOA1Km6QUTDtTe3PedBBMAQ4vJlPxdh4rezSWf+qCdE2+KZfD3fKB1y4E0+AOQb8uoOTWdJjOqqOlvzPkeAMHf3AbMNhHUVB/f8fgPAANk4Yz0vH320h5zZ5/3WWyKUWBoL+AnPw4bK79IvFHqN+068E4EvUc6D+z5lcI+UqcX91RFf48RH7y41igG694ImAGq6FMN48ZharvnwDr/wG3UKhm0Dr14whgteg85KfcrCgwtAYVUina+ga26H06jYeq7yrR/0f2V48YbgIM/Xofvf0WkveZvOAOtcbXO9QSAYEBM/7/JaE2FcNT9zCdnABqcnj/uMO028xE52CllFNiqWDnznwKF/pzH/7JNF006M5ZpfzGVNf+BNfgDiqky/EYnFU1NrVUAY9jtM8BmAKTGDy+3CYACborAUCbp+RO+ravztyOS2hdLfQts3Zvocb/1GcV1qTVOm6WdB30R5d7vuo8sA223/1rXyKjZzi7IczD956AX61BFY1z921eqmSp3LJwBaEjaPiUf5V+5X1d7453kjM0hsEXiu/3X96RM72L534zSBQeNQtT7U6eX+azVMgTwnB+BzroHEbS6u6QLgKl1F7rrNWgRWek0YOZJbacwHH8CK1ByGpBSp+eP31fNq6+YXgeDv9HKMb/kj/q9jUBmpdsD2hhdfFQOUvodbOR+fj7f2vilfd/uLwjs4TJ6ltMCG74IyqrVP/VpzZsI3krE/tthuDpga9p05/ozWIBuxyEpJdq+Wwtybbfqan9izQO/oFLXf0g58WN+G9EL9Wan3QnaiOif8xAFNdWY2SAvBzS1OQ+baYKVsHaSjL7F+WVmPkSWA7p91REiC3juzl6qlWedBasLMrimdXz3VzEzAahz2j6hCQW9QkvmSyia2udJmyKgrQzk01vrX58Ct5vp8wfYfqH6oIsmnYFSz17OA4tUavsPLCGgh8qoW5bFEdyHkScQoeoEQCOXTwPaHazSpxwGzDyNbE1LAOI+ARhgSzCNQy8Ztx16zUVaNlPQI7UN/Guf+FuDTA38a6ix5tK0O0Fvpw9NfjeCYnsswZsGx3P5XLYdJyPmxHbPhW+AORFQdRlQa6PaKgmtQyEPYtZuyRYRT9OMrp0QhjWN4K4LMSmUMwB1Rs8d/zkb4Qxd4X+45hU5T4GWAGiJAC9zA/8acpfMWMirf7MoHz6A0PGVvkBlzT83wA4oiZ4lI+ZcFWcTfvTDMTfL1IU/VtV8VRG0ciud8Wv/NzfArTUHqSPGyBdq+YgVEeelmEVlYNVhqFN6ybjtUDTtGprDtMcMrS2LROUcf2tQucgn47enikRnp90HejvtmnQiyj07uY8slaf/AUUukhGzvxN3K5VjgJ53P8LwwGqDaBgBtSYAglfKUXFAlfRUa/er5fXiu58OU5G/OA9KzuhZ++yoxlyvK8xeNZfwFQAtYWV938vExr6+uEemLlqcdiforXTxlCEorTwvluBNbQNr6l9xgYy6OZE7TX0AUL/l6whX/htV5v42jGAihXjVfx6p4ge4ZK/eqgPUI6tVXwUMAOJw8+VaRu3zzoNSzfSsfXaMjNyoJW9PJwN/awC0BVnZ0d9nYs330u4DbUDQOwc2cn8w3/hAfkBVJ79URs1O7ELzSlp12c4vGT9XU3WhqFzD0r3ixVC8K2ppv97kjl2ym9paNgAKjBfDDIAKE4AM0fYJvp434XqN/GdM0R9T8+BfiCrV+wZn5jhf34n8SmYsfDTtbtBbacdB70NUcnOd9Pqa2pD5NSln9DIZOfuEJFt8cwSxW+/+RfFM1TvANYpgg6qK2lkVPQoXjaypJn69CaOgpicZ4xn3VzEDCFDgEkBG6Lnjvq5i3tDV3pcR1Vjw3LeVq3qHFSv/XX/KEukpaXeCNkCDubFU+/NyA6ngz4UYMSfRwR9Y9ybAdgn9XPhJiKn60yEql6H9rAwoivPDi3f7TbVt1ic1sPqJWiKYfCw1sF/DJcNfiyMw9Z22T2jS74+/V3vz1yGstVIkKuf4t+6t/FynFLhUZnQ+nXY/6K108SG7IiqPjiV4YVAsYTMmBHS6jJx9qoj7m9025y1PFcFl47o8X75eud+zCgpExRJU+/pyub08eJczqmqrjpljFp2m1lZ36gKAGAOJYfofwJI4glLf6QXjx6mRl7To7++sbO/QYr3Pov7HBPr9tDtBGxCUrnJ9IRkAwOQAv+Fr/a+C4mAZOefqtDrwtlEk+uGY603OO67aOwLUKqLeUl9mAm4NBuW/iHapy/nIWmhoa9rkEdPTP0TAi1VSpOftc4au8h5CYGo/85SzlWt6m0MHPUuXiJwox3axQFXG6JOf2wZReY9YghdaYwmbGYJ/AzJeRs2+J81ubPAx0v5wzys8zxwsUt1VtWoVYW8JGm1wbLcCfC8YtMsX0D58wN3jbWZ0nq7WVv0BL8Y4qbmwIZEVJgAp0e+Pv0N7cmfVvMkPqEz11+9a/1sp5uPojgFVH6Ru9HRfE8vav/GAXEOv/T8JzxsjI29emnZHNv2Pd9yT20i4+jcaRiOrbcDkc/By3poNa/qsipkaXrTLvGrj1bUTFjZLESvUatXvbr8pD4knAdAgH2yNc/dkIaAEafuEJuvjSSl5H3QSsC0ABgeIZVo2eT1iZDc5uuOZtDtCb6U6xcOClUVo5H46sjAIKNS+9SWjfoZC4avyoZ9kouLqpheSL9v5Jb1yzCgv700Rz/yjmgZsOUDYWyqpxcnBoKYRA3bwByCB+Xktg7/xvbgGfwB4joN/srR9txb15Dm3g38ZDTL4QwQncfDPqK7SzFgGfwDIN2TJ3xCip2HE7MOzMvgDm0sA1oiuGPMzvWrsu3NNdoz4/q/7dFxQJBLPe87k/O+q//qQ8JJdLx6IU/5recd0HqZhVPVZWRGBV4hzU4zGduEEvZ1eOaFN/UF/Rtm8y0nAQeU1g3/DuA9Hd16bdidoY8JpsYT1C0CNJ14z6C+A2VtGzDk/jZ3+m9KvDC64bFwX1l4cdNojW3rdhf9Vo7tCsRWgBSheg+Dvnl94ILh0l8cVjfIsUqPjH97OluzNtfxleE25WM79r6XG+2VswekttH1KXl979TmUzbZOAg4KKj8ahvxbAv9LWfuwpAp97KAtsHp1DDX/0YgX/tyEQmFGlp7611X9FM5541ZEwO2o/HiLBth65E67+vJS11K1UdVT/14hH0vZ33W8Ebbm5sXZAP2X5l59FEVHg39LUHn6bxwqYr8uxz7yStodoY0oh2fGsvlPTCNt/nsJimkyavadaXdkUxpuriVb1MgrnUvVRlV/2JucD5OLdfAHgF8P5OWZJOk543+HohnhJFghBLZorH82FVwgU7vuTbsftAmRnRxLXD+Pei9YUSFzEdiPZn3wB2qZAaDNkuldCzS0O1f7epPzYl73rxDBgLqFMS167vjvaa//cSfBPFsp8tNY7jND3/1tsBxFZqnCYGH4/liC+1XXRsuK5yA6XUbMrpv9VEwA4tD+YJO83PSYRtGHqg1h8j68fCKVsFaVTc+vkmhoINPz9tlLe7wznKxqGwWGlRpr/k5kmZTtEXL43PqtVzwQdE06HLYnnneeV7cJwGpALsJg/zx5/0+LaXemP5gAuHZ8x/vkJTyq1m5V1esF8PL5JKb9KxS34YK9M7lBpVFo+/6DtVT6rZMiPwAwpNwYRX7+6yUR7wA5toPV/jLPfjmWsMavFACqLxbATYiib8mut/4r7c5UgwmAQ97MRV+xxehaVVvVo7sYWbPhL8FHOzWzkmtsYIpyPb81Rd9NZZPmsCHK+66jKKoHydHzX0y7I9QHUbRrLHHrr+7/L6H22zLqlmVpd6QWTABcOP7h7aRcuDsKgt2qer0AJpeDl/OT3gPzRHDJqEWJtjjA6HkTjtQez029dKOVp//GEYrgCzKti4v+dcMOiyWsVxdDkUJwLxRny8jZDfGerYu/9cxqf7DJvNJ8pS1GX1INq5q/Mr6BKeQhMZ7x3yjV65JvdODQ9glNtiSzqrxb8+2GlCtJQGOIROVLMq3jjrQ7Qn2jCw/cA1ExpvX/TM8AWAD3wuJ7ssvsR9PujEtMAKoxfdG2RvQifSk63NqoineuVAb+nJ/sdP9bvRYEwU1pNT4g5PVO6fWancQqRI009R+JyBdlWsctaXeE+sGTyYhli6YAksmh6A2o3AYTXSIjbmnIktSZ/FvPKm9m1+et6rc1Cj9sqyiEUbnJrzLwx1nVry9UcSlS2dpYAAAfWklEQVSuGMNNVzHRc8d+UHv9TzmK1khlfq1AvyJTOzn41x0dE0tY46X+ebieLkB+hKBljoye1ZN2Z+LEBGBzjukcbCA/1MAeGgVhVRu5jO/B5Ly4q/n1x+thzl6edicambWFuaKOdnQ0R0CuIXb9R6L4mkzv4sxTPbL67ljiZmP3/8uA3IhIr5ddZz+VdmeSwgRgY6YvazOm+2obRJ+ziirX9z2YfA5iMpXdQlUuxfmj30i7H41KL/jYOO02o5wEEzTK0/8qgXxOpnfck3ZHqEoaVXe0eXPSTQBeh8ppaF3+U9nxvoarrLU5TADeRo2Z8ejlNnp9qo2qG/jF9+BlcOBf443Q4rK0O9HIbDl3pbg6ztEcAl69b/yTf4vaiTK9c0naPaEaWNsWS9z0bv97DqKflpGz/5JWB9LGBGAd3owlB1vbeb0N7ZBqXi9GYPJ5GD+7JdoUOAuX7vJ62v1oVHru3h/QXu+jToIJgLa6v+XvjxLJgTKz64W0O0LVU4XBfI1nq346S6MrYML9ZefbBuzgDzABWEONzFj0sygsHlxtBOOvqdufrc0s63sq7Obaf6zUuxau1v4LUb1X/PutBHqYHLuQm03r3YIp7wJWxBQ8hQcmxbdk59ueT77hbGECcFznCCl3PqihHVrV65Mu3VsDFT0Gs0bX/SNlVmn7BF/LZl9nAVvr9thfpJBzzEuF70n7vLr9Q9A68sFQxLVCnvxD00sIW3+cdKNZNKATAG9m15SoFM1R1ar+HkQEXlMB4mX6qX+t28KLdvt92p1oaAU9AT3iJhM0CuTrcuz8h6gcaaZ3PJR2R8ghE2wZX/DEPz/vlNGz+CCExrpPrF/MjEUXRUF4O6od/D0Dv6VuBv83fM87Oe1ONDq1cpSzYC1hPV6NfpdEdpRw8G884m8RX+yk3+i6OOEGM2tAzgCYGV1X2TCYVu3rxTPwmwsuuxQrEZnee8HIf6Tdj0am5+wxTIveDs4C1lfVvx6BfBNTO64UcXLhMWVNVN3G6D5JPNE1ryTdYlYNuBkAM6PrZhuG1Q/+vge/qX4GfwA3lS/aZU7anWh4kp/pbPOf0Xra/HePAMNlWscPOfg3MGNifFhMOAMQW1fZdZwG1AyAOWbRD205+EK1rxfPg9+U6Usr1vfXoFyemXYnBgKN/KpPkLxNIaqH6f9/isi3ZGrHjWl3hIiqM2ASAHNMxzdtEMyo9vVizJrBP/ufzGuEKvgC6/0nJDQfdharKZYbV1wJFbjK5L0z5GsLutPuDBFVb0AkAN7xiw+KiuVzq56gFMBrymf9jP965Ljwol060u7FQKAXjh+rKyXvJJigMgOQPVaBW4163zPTFzybdmeIqHaNnwAc9+Q2ttR9K6q4vW8tv1DIalnfjbkiuHiXq9LuxIARYYqzWEYrP7LDArhXxJ5hpi56Iu3OEJE7DZ8ASLCqS61WvWvPK+QgGS7tuz5Rvb88eOWJafdjINEIY50Fy2fm6b8y8FtzpsxY+HjanSEi9xo6ATAzO6+0QfTeal8vxsDk6uivSPB0OTKfRfu+3OWaJGt2dBYr/Wt/X1GVG4yxs2Rq13Npd4aI4lNHo1s/zejayYbR1OoDCLz62vH/ghfKAQEv+kleaNxVSUsnAVAAD4nILJS3uMMcO/CuRSUaiBo2ARBrf6OqVc/de3kfYupm6v9vHjCheOkuvHEtYdo+YQu1DutpJHv170oV/YkRc60c3fFMkg0TUfoaMgHwZi76ShQE76v29SJST1P/f/dstF/xkt05+KehWXfHKofxvMRmAO4VX79qvtH1UlINElG21M0jbn9Ya39Qy+tNIVcfx/0VLxpj9y1esvuAvtM6VRajnMUymsz7TnG3vNQ0WTj4U1+FiG93qiZ86kVN6httsqLhEgAzo/O7GkVVX1whxsD42b/aF9DHcj7Gli4cPeDvtE6XfsBZqGSO/70i8L/Ea3qpX8SuiC94wgmAVRawWqPhEgC1enwtrze57A/+onp/UA4m9Fyw67/S7suAp2aQs1gJfDcKcJlMnx/jhzk1JCPxXaBjE04AfMsEYI2GSgC8GV1fUmsHV/t6EYHxM7/2/6Py4JWfYYnfjFC0uQwWOyM/j78RajhS+GN8wROekS+BD05rNFQCYNV+t5bXm7yf5bX/IiAzgot3/QbP+WeIaKvDWM5CbUSAozpYxpf6TUbPfQPixfO5YxMtfvWajL7l1SQbzLLGSQBOWPhOjWzVRX+AylW/GfUMjIxled/sUf3/7d15lF1lme/x3/Puc05VJSQMYts49bUv2vZCCIRIAggGJ5puUdCFY2NrtwMJoNAgXLRtc8GlNjIqeNEWJxJlEScGl3Z7FQIhqSBBxetwW/vKBbqRMRCSVJ2zz36f+0favoCVpOrsd1fV2ef7Wcu/zP69L7Xq1H7OOyrNHQDSdNw18ThX9qJnITxSSW7RqSR2YvbzaWxs1qtNARC64SNlnrcsk83Oy36uyi1blH/iII5jrbvqRwB4+aN3IdtYSW6RVxI7MV8zjY3NerN+wnuyPPpryjw/21b+m/RbSad2Llz4tZnuCwAoa3xVuY5Jnhvj9mmAMC1/g2+cjkb6RT1GAE669Q+8G/cqEzGLLvyJkq7qtPIX8fIHMGss+tYqhVDNOoB8vJLYp3hYjc4t09FQv6jFCEBohvfFTu8rSS3YLBn+9x/JfFl+waINM90TAHgiM0UfbW5QbB+ePDwfl4bSraedkPtXbb/V07ngYNabNV97y/Ci3PD/LFj8d5dM78znLVzEyx/ArNXQhyrJjV0pVroWwNUIn6uygX5UiwJAbqVOY5uxS39cd0t2Wt6Z98L8goVXaoVxRCWAWcsWfftGZa1q7h1pb6skdju7wV608icVNtCX+n8K4MyfzPUtW+aUibBs2guA30g6P58/9Hmt2I8hKQD9w5qnSp3rkufm41JrjpQlv4Y9Kvp5qUProO8LgGxs7NiizOYmm7b5/67Lb1DUZ7q7L/xnvu0D6Ed26LXX++irNyofPzh5+Pjj0txS67kncqUdtOqHqUProO8LALe4pMzzFip/+d/j0ueaMVw5dvGB/1Z1Y5hmlnDzfvW79Ck6kUajdayKzt2KMe07pMilzpjUGkmVeL9a2Tmpwuqm79cAuLJ9yzxv1Z39Oy5pWT7vsT/uXrjwXF7+9WTm6SYuveJi1LWl2gYwKGzRN+5T1np3JeHtzVKRZLdhVLAT7U+//HCKsDrq+wJA7s8u9Xw1IwCFuf4yv3DhFZzbX3OudDfrFRUXAMEfq7YBDBJbcsMX1Br+VvJglzT2qEoPibmtsP1Xfi9Fl+qqBgWAyh0AVMX8v+vyzkULuXVtEAT/RbKs6qcA7qq8BQwUW3zD8WoMp59fj4W07VHJe/5Q/KMduJKFf7vQ/wWAvNxlLOnf/7HRyD6RPBWzUyjSnS1ehEpHAVzGTYBIb8kNS9So4Lrgbmd7ETDVyti0Uv+7syx5f2qo/wsAL1kApHfP2PkL7p3pTmCabLv1VoWEi+vy6g6lCtFGKwvHwDJTtEO/vb8awzclDy860rZNkk/6I3ah9l/1NnvD6mm9Y7hf9X8BUHYnQ/ovXL9JnohZy1YoqhHTFXydyj6ShZRxExoqY4fecJSawx9LujNGkrq5tOXh7SMCOzYm2btswaozufJ68mpQAJR8gydeeW3uHOwzYKwR0y2EGmuoiqpUsjW2fG26BYvABGzJDR9Qa2SpQvORpMEet48EtLdOsC7A1sriQluwkqN+p6gGBQAw04oVst5XKz05yqR2+o+lya9KHgpMwA657mY7/DtP09CcS2VZ2l1Q7S3S1oelbluS7pX5O3TAyiPtgK/+Mmk7A4ICACjJzlm7KQ7FjckCtyU/n+t+hfya1KHAztgh152mvD1PzTmfVWiMJYweV975svTgC+2Ar3yRIf/e9f1JgMBskA133+nt7MdJ/hSNN6Q8l5pp1haadJG9Z2OVN60AE7KjbhqX9B5J7/HRY18vj++Xx/1V5FO7vyVk4wrNO5VlV9gh136hks4OIAoAIAE7Y+1Puh9duiaMZS8tHeaSHm9Je42X75j0fxXyy1IEAWXYkuu/LunrkuQbT9hX3fbx8rhQ0gukOFfR50qSgm2VwlZJ/0cWbtOwrrMF17GFtQIUAEAi2YiO847fr8LKb00dz7aPBAyXmkJ1cy3j2z9mGzt49a8lcV7KDGMNAJCInX7TozaSvzXZIv5NQ1K394+om19qy0e/k6g3AGqm/wuAsgtAUu+4MuMAigFmZ9/yNRvJP5/k98olPTrU61bVNWGvLWcn6AWAmur/AsA9L/V84gtSXdqcNhH9xs65+W9suJvmEpJOkB4ZmuppqHfa+PBx9oafcSYFgB3q/wLAVOqGM09/RfoDqQPRf+wDa15lw/m1SUYC2pm0aViKkwq7zfLmK+z0mx5N0DKAGqtBARD+tdTzMfEWUndWq0KSZB+8+TgbiRcnOSRoPJMeHt7pmgA3rbSQH2XvveXB0u0BqL2+LwDMwg/KPO9F4hEAC7elDUQ/s3Nu/FubWxztzfh46bA8SA8Nbz8u+MklxSZz/+vspNETWfEPYLL6vgCI1riyzDCru8tjsiJgU373r+5IFYZ6sLPXfC/EG/ewke4XlHm5RaLRtu8OeHhE6mRdl/7R8uaf2PINHI4CYEqqu3x8Gtny9fd6EZ/V6/NZq6nQSnIkwufyCxe+K0UQ6skvX7qbNsfLPM9erzzs1lNIUFSre4c142l21i23Ju4igAFRi4OALMuu8CKe1+vzMe+mKQDcrywfgjqzk2/aIuntkt7uF7z0lWprmcdwqArbW9EaE672N3dv+BZv+C+zRrxG28Jl9sE1SY4JBDC4ajECIEl20vqt7nFq50s/QTbcUmhkZbrwg/zChS8vE4DB5isO3UtzGvvLsn1UFA1ZvF/Z8L/Zmd//+Uz3DUD91GIEQJIsy87xbry01+djO1doBPVYE0VZ/ECvbQOSZCvWPyJpzUz3A8BgqM0IgCTZyet/7d34X3t9PrSaynqaCvBL8wsPPq3XdgEAmG59vwvgibyZH2Eh9Hz6WezkvWwL3Jh35nPkKgCgr9SqANAlR96XDYVjZNbzvr7ueGfS2wJdurfh3eP1qee3e20PAICZUK8CQFL3ksU/yJrhjT0XAe7qjnXkuz687TdZsJeNXXTIPT21AwDADKrVGoAnapx825FF7H7Xo4/0FGCmbKi5g50BtjYvijfokkX3leslAAAzo3YjAL/TvfyQm32o/UxrZLf3FOCuYryjov2kywbbZv7f83mPHsXLHwDQz2o7AvBE2Wm3Hxfb+WUeezst0MyUDTeuz5rNM9qfOOhXqfsHAMB0G4gC4Hca773t5UUsPqRuXOyu4V39e8vCVsnWN4biB/OLD+OSHwBAbQxUAfAk7779haEVXy3Fhe7aS6bdJW0y6UEp3BHl1+myxb+Z6W4CAAAAAAAAAAAAADBJg7sGAAAw7fzOv9hT25p/LRVHKRb7Sv4MyVvy2Nz+SrJcCh0Fe0hm/yKFtRrJrrQF33xgpvteNxQAAIBK+e2v20d5fp68e7yK7l7SLk9afTKTZM1NyhrfVXf4v9lLVt9dSUcHDAUAAKASfuuxL5YVn1XMD9Suj1efHDOpMXSnmiOvt4NX/zpN6GCiAAAAJOU/fc0ztCVer+74i5OHN4ak4d2k0MhlukKdzods0erHkrczACgAAADJ+IZjP6C8c668mOgild6FTBqet70AeLLfymyZHbDyW0nbGwAUAACA0vyaE1p6zrYb1W0fljw8a0pz9pBsh9fXuOSfVCM/y/Zb3Unefk1RAAAASvHbX7G7Os2fq8ifmTy8OUca2U2Te135DzRmx9uSVZuT96OGKACAGeQXL91D7fhXimGpu79A0faUbEiuzM07ZrZVwe+y4HcotFfZWaN3zHSfgSfy29+8t9qP/kox3yN5eGtEGp4/tWdMP1Sn80rWBewaBQAwzfxjL9lTCud6N7xRefb0Ke2Iavi4mnGDjRQftNNvubWyTgKT4LcfO0ft7l2K+dOTh7eGpeHde336Zs1vHm3P++J4yi7VDQUAME384iP20Vj4orezVyjueDJzUkyy+Z11mtNZZss33Jmoi8CU+Pq/+IW67RcmD260pDl7lgyxq23Byjcn6U9NUQAA08A/vvQSHw+nqLDyK6ObUdq9I7UKSSrc/IowNvJ3dvpNj5bOBibJb3v1JWqPvy95sJm02947W/A3ea5lduCqK8oH1RMFAFAhv/iIfXxbtk7j2X8pHWaS5ubSvM5En9x7THqzLRtlWgCV8/WvXaxi23q5p3+HzNljoq1+vRqXZwvswC//S6rAOklQYgGYiH/8yMP8scZdSV7+QdKebWn+hC9/SXqOSzf6pxe/o3RbwK545xuVvPybQylf/pI0LHUvSxlYJxQAQAX8Y0v/zMcbN6sIrdJhwaU9x6Xh7q7+ZdPNrvT/sfiM0m0CO+Cjx51RyXY/mTQ0r4JYe6Xf+ZbXpg/ufwM5BdA45YeHR4tv9+gL5f5suUbkymTqKmhM0t3m2pi1ss/klxzy45nuL/qL/8Phi3xsaL0Ka5QOM0l7jUtDxZS6YK532/LRz5VuH3gKX3fMIyrysiv0fl8vW/4mzX6kA1YebDbVW4jqbXAKgPf99BlWbP20YjzGCx+Z7GMWbIuF8M3Yiqfp4sMeqbKL6H9+8dI94mb7d+uGSf+O7dQebWnOLr/5T6Qwt5fb8vVrkvQDkOSjr36H8vHPVxK+297bj/utSrBX2f4rv1ddA/2n/lMA7759jp08+m2Nb77P8+J1U3n5S5JH303SiQ0N/bJ5xo+W64RrKvwNRb/zbbol2ct/pOj15S9JmZt/xT95RPr92RhcHs+sJDdrVvvyl6TorI95iloXANny215nWecR7xZ/rl5GO8zUGGkpG27Jgj1d8subz9133dDpG/dN31v0O//4kSernb0oSVjw7d/+y3lmbHQuSNEdwEePma8i/9NKwptpauZdOM5H31rVHENfqm0BEE4ZvaQo8q979J6WlFoW1JwzJMt+ryo9JAbbmJ1xxzHle4m68BVLG97OLkg2wzivI1n5MDM70T+z+CUJeoRBF5rvqmTlvyQ1hyuJfYoRzbGXTUdD/aKWBUA4ZfSqmBc9H1BhWabGyND2AykmNj9I17b+duMbe20DNTPs56sb0vwVa7g0t+eh/6cyj/bhVGEYYDEeV0lu1tjZ39q03I+anob6Q+0KgHDKuktiXvxlr89bCGoMNyfzT5tudlXjjI1H99oW6iN2wnuShc3Nk0X9h1f4pxcfnDoUAyYW+1WSm5XfLDMFjIY9Qa0KgOzk0dfG3Hs/mtJM2UhrKtVo02RXD5/5k+f13Cb6nl+w9DjLw5wkYebSSLJv//8pmr09eSgGSyx6vplnpxIclTEFf+I+QLvfdqE+BcCKG4djUVxdJiIbasmmPhS1RxGLL0kVzY1h1vNcZycLGyq2LwBMzKQ3+TUnsIMFPfG1r3mmPFbzvqh69f+TzdWdb33WdDY4m9WmALAHR652V89zsNYICo0efxymI5pn/PhtvbaNPtcJByTLmtqBP1Oxtx66+8CqwlFzwZ8/011IJvreM92F2aIeBcAZt+/tRTy2TETWmtS8/074h7XixmmdzMLM808ufbYKSzP8L0mtmCzq95iWVheOWsvsDyrLnt4RACkTWwH/Qy0KgNDuflLuPf+3WJbJQukfxfNam+e/vmwI+szW7quSbf0LLjWqKwCiWTWLuFB/brvNdBeS8UTrdWqgFgWAF17q239oJvoxBGMaYOCEFyeLMq/0cG5zvaC6dNRb3Fxd9rQfz791uhucrfq/ADh1wwKPsVR1GhJtQ3HXK7X8Z/WplLFrZn+YLKv6kdCnVd4C6inqocqyfZoLgBgfn94GZ6++LwCC62/KPG/BUn7rajZGxg9PlobZL1q6+0srWP3/FMx9ojdzG7+oLNsrXPcycXsPTG+Ds1ffFwDuWlTm+QmO+i3HEq4IRx9IuP2z8m9C03XcGurGFnzzAYWsmi0qcVoLgMd10NX3TWeDs1nfFwBSfE6Zp3vY97/zPHfmWQeJWbrhxN7XsU5SlfO4qL/wWCWxRaeS2AmZfmk2/YsOZqsaFAAqt6Iz8Xcil/ZIm4hZzT3dcGKs+gu6PVxxA6izkP20ktwi+dHXOxZt7fQ1Nvv1fwEQvdwG/sQjAEGamzQQs5vp9mRZ0VTlNgCXflVZOOqvaV+vJDcW07gQ0H8wTQ31hf4vAIKVKx8T/95F07a0iZjd7J+T/RJFSd3qCoAg/byycAyCKxVCNRP2+XglsU+xRRZunI6G+kX/FwCusXLPp60AzLUpaSBmNTvnpru84en+enUq3AsYtKa6cNSdLbp+m0Ljf1USnpf7Mz45/g1bcBVnADxB/xcAsnvKPO2JCwCXM8w6aBr+s2RZ7co+kpt03/DGqsIxIKzxsUpyi3z7VECVzD9fbQP9p+8LAAv2wzLPe5H4ly7qzrSBmO1Co3tpsrDxRiUHo7nZaltxU/p7hjFQbMl1V6vRquZQoE6lX85H7YCvMgL2FH1fAMTYLVXVeUz617bbbY7dmjIQs5+dvfYqNWKaaQCXNJb+TqlQ6EvJQzGgwocqie2MSbGiGtV9RTXB/a3vCwB9+vAfWxZKlY6xm2YUwEz/U+e/hGMmB5C1ii8mC9vaVNrdAL7eTl6/LmEgBpgdesMVylp3VRI+vqWK1OvswK/8UxXB/a7/CwBJZtn1ZZ6PeaJpANeX0wSh77TD6Wp4mhNN8iCNpVsMaFbRNzYMriIcJ7P0k1Xd9vb/pbNVsXhfysA6qUUBEIfDqWW2p3hRyIuSu1tcd3fmDVWzTxaznq24adyGu3+fLHBzK80pw6bVdtL675cPAv4/O+KGn6gx/JFKwsc2pzwe+GQ76Oq7UoXVTS0KAF246CELVmoUoOiUPY3KPqwV+03jmZaYbezsm//Bh4pfJwkrTHqs3BlXkh60PDstRXeAp7Il1/+9msN3JA/2KI09miDIrrQFq1j7shP1KAAk+dPH3mSmnhdieREVe94RYGvziw7kFw0KQ53D1fA0Y5jbmmUWBEYze5udeuu/J+kLMJHFixYra96bPLfIpbFSVw98X4328lTdqavaFABacdR4yLI3lYkoxvNedgU8mll4m1TBfBj6jr1/3QM2kh+toDRjmI8NSZ2pf0xNOtNOWv/dJH0AdsBsRVdB+ylrPZg8PB/fPh0wdbeo0TnO9lvNiOwu1KcAkFRcvuTa0Ayf6jnAXUW7M5V92HmU3jJ+wYLf9NwmasfOumWNjeRvVkhw0XmU9PDI9oWBk+Sy82zZ6MWl2wYmwZZ8Z7O06Y/UaP5r8vB8bPtIwOQPbLtWWztH236rK9lOUDe1vB88nDz61dgteh4NsEZQY2hoVz+drsne3rnwoFW9toN68/OPfJVva3xbhZXf2B9c2rMtDe10miqadLotG/1k6faAKXJX0Oix31Z37M+Sh2dNaWQPKeywEI4yfUS/7Jxrb1hd8ZGC9VHLAkCSwikbPhXz7im9Pm9ZUGO4tYPbAv3x6HpLcdHBN5ToIgaAn3fk86KHdZZnf1g6zCTfLZfNyzXBMNWDJjvRlq1nvzNmlG94zUkqOpeq6LaSBptJI/OlxvBT/5+7JL3TFqxit8sU1bYAkKTslA0nxKK4yqMP9fK8mSkbbsmyJ1WdG0OwN7c/cRBn/mNSfIWCho78go81TpQnuH96qJB270iNKEnuspVBdqYtW/dA6WwgAR89Zr48+4aK9svkKfazPkHWkobnSVljTNJFyud+1BZ9lltYe1DrAkCStPxnu5k9/jXvxlf1urE6NDOFVvMhMzs3v/vXn9bqNzDEhCnz8458fhHsS6GdLSldCJikee0f27y43E5atz5ND4G0fMOfv0AxXKmifXiyQsDM1RjaoKftfoI9f1X6HQgDpP4FwO+cvu5Z1gmXqyiOdtfvjSHtiGVhqwW7PlrnvfrUkelXumLg+Mdf8lzFxke9a8eqG+ZP6fKfzLtqFndaK55r77/l2so6CSTko8fMlxofUuy+Rd7dR3GKxYCZKzR/qyz7lorO39lh//RIRV0dKINTADxB49R1L43e+CuP8WDJ95E0R64gqZBpm8zuNfkdWSP7bH7pIaVuGwR2xj/ysj9SVrxHriVehD+WNF/RhmRuknI3jSvEe0Ownyrrfs3OWsu6E/Q1v+aElp479lbJXqlYvFDmz5JrSFJT7qagjjyMy3S/LPuZTGuU6SpbdD3D/AAAAAAAAAAAAAAAAAAAAAAAAAAAAAAAAAAAAAAAAAAAAAAAAAAAAAAAAAAAAAAAAAAAAAAAAAAAAAAAAAAAAAAAAAAAAAAAAAAAAAAAAAAAAAAAAAAAAAAAAAAAAAAAAAAAAAAAAAAAAAAAAAAAAAAAAAAAAAAAAAAAAAAAAAAAAAAAAAAAAAAAAAAAAAAAAAAAAAAAAAAAAAAAAAAAAAAAAAAAAAAAAAAAAAAAAAAAAAAAAAAAAAAAAAAAAAAAAAAAAAAAAAAAAAAAAAAAAAAAAAAAAAAAAAAAAAAAAAAAAAAAAAAAAAAAAAAAAAAAAAAAAAAAAAAAAAAAAAAAAAAAAAAAAAAAAAAAAAAAAAAAAAAAAAAAAAAAAAAAAAAAAAAAAAAAAAAAAAAAAAAAAAAAAAAAAAAAAAAAAAAAAMDE/h8JHcDITNOpRgAAAABJRU5ErkJggg==;" vertex="1" parent="1">
          <mxGeometry x="340" y="400" width="60" height="60" as="geometry" />
        </mxCell>
      </root>
    </mxGraphModel>
  </diagram>
</mxfile>
